<?xml version="1.0" standalone="no"?>
<!DOCTYPE svg PUBLIC "-//W3C//DTD SVG 20010904//EN"
 "http://www.w3.org/TR/2001/REC-SVG-20010904/DTD/svg10.dtd">
<svg version="1.0" xmlns="http://www.w3.org/2000/svg"
 width="500.000000pt" height="500.000000pt" viewBox="0 0 500.000000 500.000000"
 preserveAspectRatio="xMidYMid meet">

<g transform="translate(0.000000,500.000000) scale(0.100000,-0.100000)"
fill="#000000" stroke="none">
<path d="M0 2500 l0 -2500 2500 0 2500 0 0 2500 0 2500 -2500 0 -2500 0 0
-2500z m2628 1833 c-49 -2 -127 -2 -175 0 -49 1 -9 3 87 3 96 0 136 -2 88 -3z
m-318 -13 c-134 -20 -199 -33 -194 -42 3 -5 -6 -6 -22 -2 -17 4 -25 3 -21 -3
4 -6 -4 -8 -21 -5 -24 5 -21 7 24 19 84 21 206 41 249 41 35 0 33 -2 -15 -8z
m468 3 c-10 -2 -28 -2 -40 0 -13 2 -5 4 17 4 22 1 32 -1 23 -4z m75 -10 c-7
-2 -21 -2 -30 0 -10 3 -4 5 12 5 17 0 24 -2 18 -5z m112 -18 c67 -17 36 -18
-40 -1 -33 8 -49 14 -35 14 14 0 48 -6 75 -13z m82 -21 c-3 -3 -12 -4 -19 -1
-8 3 -5 6 6 6 11 1 17 -2 13 -5z m-1142 -48 c-456 -162 -821 -472 -1044 -887
-53 -98 -71 -117 -25 -26 41 80 130 223 181 291 154 203 416 418 648 533 103
52 312 131 345 132 8 0 -39 -19 -105 -43z m1334 -13 c110 -41 268 -114 296
-137 11 -9 -36 11 -105 44 -69 33 -174 79 -235 101 -60 22 -96 37 -80 34 17
-4 72 -22 124 -42z m-409 -79 c676 -104 1247 -575 1456 -1199 40 -121 71 -272
78 -380 7 -94 -6 -57 -24 72 -53 384 -256 763 -558 1037 -254 231 -551 378
-897 442 -156 29 -500 27 -654 -4 -378 -77 -715 -268 -959 -544 -78 -89 -152
-192 -196 -273 -15 -27 -21 -42 -14 -31 178 257 334 417 541 555 372 249 839
334 1287 235 387 -87 735 -310 972 -624 118 -157 242 -418 263 -557 11 -73
-11 -48 -44 50 -45 131 -140 316 -218 427 -37 52 -124 151 -193 221 -234 235
-500 379 -825 449 -143 31 -421 39 -568 16 -113 -18 -273 -61 -295 -79 -7 -6
-69 -34 -136 -62 -127 -53 -244 -120 -306 -175 l-35 -31 44 31 c59 41 67 28
11 -17 -83 -67 -255 -248 -317 -336 -110 -156 -210 -372 -270 -585 -26 -91
-28 -109 -27 -282 0 -153 4 -203 23 -290 65 -304 198 -556 406 -766 230 -233
491 -371 810 -428 47 -8 66 -15 47 -15 -52 -1 -221 36 -319 70 -261 92 -498
260 -670 474 -156 195 -279 471 -318 715 -39 248 -11 567 69 785 6 16 6 17 -3
5 -17 -23 -77 -215 -98 -310 -29 -134 -16 -495 18 -536 6 -7 19 -48 29 -91
129 -540 523 -969 1049 -1143 145 -48 233 -67 388 -81 271 -26 575 33 835 161
312 154 565 405 727 720 55 108 44 56 -14 -67 -209 -444 -589 -739 -1090 -847
-128 -28 -108 -33 42 -10 245 36 416 105 623 252 185 131 418 389 521 578 63
115 59 80 -5 -43 -81 -153 -174 -281 -301 -408 -132 -132 -257 -223 -425 -309
-233 -119 -445 -174 -712 -183 -232 -8 -442 20 -632 86 -33 12 -61 19 -63 17
-5 -5 130 -50 216 -71 113 -29 322 -55 437 -55 184 0 333 19 584 74 14 3 -15
-8 -64 -25 -144 -48 -291 -69 -494 -69 -259 0 -441 33 -682 122 -297 110 -547
285 -748 523 -46 55 -88 99 -93 97 -5 -1 -8 1 -8 5 3 21 -2 34 -11 28 -6 -4
-10 -3 -9 2 3 20 -2 34 -11 28 -5 -3 -7 0 -4 8 3 8 0 18 -7 23 -8 5 -10 3 -4
-6 5 -8 4 -11 -3 -6 -6 4 -9 13 -6 21 4 8 -1 18 -10 21 -16 6 -53 64 -41 64 3
0 -4 9 -16 21 -11 11 -18 27 -15 35 3 8 2 13 -2 10 -5 -3 -16 11 -26 31 -13
28 -14 38 -5 47 9 8 10 8 5 -1 -4 -7 -3 -21 3 -30 20 -35 3 40 -29 127 -35 95
-80 272 -79 310 1 18 5 12 14 -20 17 -60 18 -43 0 62 -113 689 192 1381 776
1761 123 80 303 166 364 173 48 5 49 5 30 -11 -11 -9 -74 -43 -141 -75 -507
-245 -847 -678 -965 -1230 -20 -91 -23 -135 -23 -330 0 -238 12 -332 64 -485
11 -33 17 -49 15 -35 -3 14 -15 67 -26 119 -44 207 -44 537 1 743 64 295 213
576 418 790 151 157 286 256 481 353 318 158 697 215 1061 159z m-1071 12
c-10 -9 -89 -46 -89 -41 0 6 72 44 84 45 5 0 7 -2 5 -4z m1006 -709 c232 -69
362 -207 373 -397 10 -171 -72 -307 -232 -385 -39 -19 -96 -41 -126 -49 -30
-8 -48 -16 -40 -19 8 -3 45 -15 81 -27 172 -55 305 -181 359 -340 28 -84 29
-230 1 -318 -38 -123 -123 -221 -243 -279 -136 -67 -131 -66 -695 -70 l-513
-4 0 25 0 26 120 0 120 0 2 885 c1 487 2 895 2 908 1 22 -2 22 -121 25 -116 2
-123 4 -123 23 0 20 4 20 488 17 430 -3 494 -6 547 -21z m-1955 -288 c-38 -91
-74 -215 -96 -334 -19 -96 -25 -391 -12 -535 5 -53 4 -65 -2 -40 -16 58 -26
311 -18 416 9 113 29 222 64 342 25 85 84 235 91 229 2 -2 -11 -37 -27 -78z
m-26 -173 c-3 -15 -8 -25 -11 -23 -2 3 -1 17 3 31 3 15 8 25 11 23 2 -3 1 -17
-3 -31z m-17 -58 c-3 -8 -6 -5 -6 6 -1 11 2 17 5 13 3 -3 4 -12 1 -19z m-10
-40 c-3 -8 -6 -5 -6 6 -1 11 2 17 5 13 3 -3 4 -12 1 -19z m-12 -73 c-4 -25 -9
-44 -12 -41 -2 2 -1 25 2 51 4 25 9 44 12 41 2 -2 1 -25 -2 -51z m-18 -107
c-2 -13 -4 -5 -4 17 -1 22 1 32 4 23 2 -10 2 -28 0 -40z m-70 -10 c-3 -8 -6
-5 -6 6 -1 11 2 17 5 13 3 -3 4 -12 1 -19z m60 -125 c-2 -21 -4 -4 -4 37 0 41
2 58 4 38 2 -21 2 -55 0 -75z m280 -30 c-2 -21 -4 -6 -4 32 0 39 2 55 4 38 2
-18 2 -50 0 -70z m13 -267 c5 -54 9 -101 6 -103 -5 -6 -24 147 -30 242 -4 75
-4 77 4 20 5 -33 14 -105 20 -159z m3257 172 c-3 -8 -6 -5 -6 6 -1 11 2 17 5
13 3 -3 4 -12 1 -19z m-3550 -110 c-2 -18 -4 -4 -4 32 0 36 2 50 4 33 2 -18 2
-48 0 -65z m10 -95 c-3 -10 -5 -2 -5 17 0 19 2 27 5 18 2 -10 2 -26 0 -35z m1
-108 c0 -16 -2 -15 -8 5 -4 14 -8 36 -8 50 0 22 1 22 8 -5 4 -16 8 -39 8 -50z
m9 43 c-3 -7 -5 -2 -5 12 0 14 2 19 5 13 2 -7 2 -19 0 -25z m3530 -25 c-3 -10
-5 -4 -5 12 0 17 2 24 5 18 2 -7 2 -21 0 -30z m-3520 -25 c-3 -7 -5 -2 -5 12
0 14 2 19 5 13 2 -7 2 -19 0 -25z m280 10 c-3 -8 -6 -5 -6 6 -1 11 2 17 5 13
3 -3 4 -12 1 -19z m10 -40 c-3 -8 -6 -5 -6 6 -1 11 2 17 5 13 3 -3 4 -12 1
-19z m-300 -10 c-3 -8 -6 -5 -6 6 -1 11 2 17 5 13 3 -3 4 -12 1 -19z m20 0
c-3 -8 -6 -5 -6 6 -1 11 2 17 5 13 3 -3 4 -12 1 -19z m3500 -20 c-3 -7 -5 -2
-5 12 0 14 2 19 5 13 2 -7 2 -19 0 -25z m-3148 -178 c0 -3 -4 3 -10 13 -13 23
-59 157 -58 171 0 10 68 -172 68 -184z m-350 159 c1 8 3 12 6 10 2 -3 1 -16
-2 -29 -6 -22 -7 -23 -14 -4 -11 27 -10 54 1 29 5 -12 9 -14 9 -6z m3488 -41
c-3 -8 -6 -5 -6 6 -1 11 2 17 5 13 3 -3 4 -12 1 -19z m-3476 -15 c-12 -20 -14
-14 -5 12 4 9 9 14 11 11 3 -2 0 -13 -6 -23z m12 -28 c-3 -9 -8 -14 -10 -11
-3 3 -2 9 2 15 9 16 15 13 8 -4z m10 -30 c-3 -9 -8 -14 -10 -11 -3 3 -2 9 2
15 9 16 15 13 8 -4z m10 -30 c-3 -9 -8 -14 -10 -11 -3 3 -2 9 2 15 9 16 15 13
8 -4z m11 -30 c-4 -8 -1 -15 6 -15 6 0 8 -5 4 -11 -5 -8 -10 -6 -16 5 -5 9 -6
21 -3 26 9 15 15 12 9 -5z m330 -52 c14 -29 24 -53 21 -53 -5 0 -55 95 -55
106 0 12 6 2 34 -53z m-301 -27 c-3 -4 -9 -2 -14 5 -13 22 -11 31 5 17 8 -7
12 -17 9 -22z m347 -56 c6 -11 8 -20 6 -20 -3 0 -10 9 -16 20 -6 11 -8 20 -6
20 3 0 10 -9 16 -20z m65 -100 c33 -46 36 -54 12 -26 -19 21 -42 53 -52 70
-25 44 -14 31 40 -44z m2850 -30 c-9 -16 -18 -30 -21 -30 -2 0 2 14 11 30 9
17 18 30 21 30 2 0 -2 -13 -11 -30z m-2780 -60 c10 -11 16 -20 13 -20 -3 0
-13 9 -23 20 -10 11 -16 20 -13 20 3 0 13 -9 23 -20z m126 -127 c13 -16 12
-17 -3 -4 -10 7 -18 15 -18 17 0 8 8 3 21 -13z m60 -50 c13 -16 12 -17 -3 -4
-10 7 -18 15 -18 17 0 8 8 3 21 -13z m2229 -228 c-24 -25 -46 -45 -49 -45 -3
0 15 20 39 45 24 25 46 45 49 45 3 0 -15 -20 -39 -45z m-70 -58 c0 -2 -10 -12
-22 -23 l-23 -19 19 23 c18 21 26 27 26 19z m-50 -41 c0 -2 -8 -10 -17 -17
-16 -13 -17 -12 -4 4 13 16 21 21 21 13z m-1222 -53 c-21 -2 -57 -2 -80 0 -24
2 -7 4 37 4 44 0 63 -2 43 -4z m862 -163 c-8 -5 -19 -10 -25 -10 -5 0 -3 5 5
10 8 5 20 10 25 10 6 0 3 -5 -5 -10z m-893 -156 c-3 -3 -12 -4 -19 -1 -8 3 -5
6 6 6 11 1 17 -2 13 -5z"/>
<path d="M791 2074 c0 -11 3 -14 6 -6 3 7 2 16 -1 19 -3 4 -6 -2 -5 -13z"/>
<path d="M801 2040 c0 -8 4 -24 9 -35 5 -13 9 -14 9 -5 0 8 -4 24 -9 35 -5 13
-9 14 -9 5z"/>
<path d="M821 1974 c-1 -15 30 -106 35 -101 2 2 -5 28 -15 58 -11 30 -20 49
-20 43z"/>
<path d="M866 1840 c11 -48 122 -265 183 -357 57 -88 242 -290 323 -354 20
-16 -23 30 -95 103 -73 73 -162 176 -199 228 -55 78 -148 248 -207 380 l-11
25 6 -25z"/>
<path d="M1430 1086 c0 -2 8 -10 18 -17 15 -13 16 -12 3 4 -13 16 -21 21 -21
13z"/>
<path d="M1620 1030 c41 -33 238 -126 346 -163 206 -71 430 -104 629 -92 220
13 212 20 -20 20 -148 0 -257 5 -305 13 -207 37 -420 108 -590 198 -47 24 -74
35 -60 24z"/>
<path d="M1600 966 c0 -3 9 -10 20 -16 11 -6 20 -8 20 -6 0 3 -9 10 -20 16
-11 6 -20 8 -20 6z"/>
<path d="M1690 915 c0 -7 101 -57 106 -53 2 2 -21 16 -51 31 -30 15 -55 25
-55 22z"/>
<path d="M1830 845 c14 -8 30 -14 35 -14 6 0 -1 6 -15 14 -14 8 -29 14 -35 14
-5 0 1 -6 15 -14z"/>
<path d="M2250 3016 l0 -406 188 0 c207 0 257 9 319 56 84 64 129 253 106 447
-13 112 -41 181 -91 229 -65 62 -103 71 -324 76 l-198 4 0 -406z"/>
<path d="M2250 2080 l0 -482 218 4 217 3 60 30 c121 61 166 163 172 400 5 168
-8 254 -52 354 -32 70 -73 112 -140 143 -46 21 -66 23 -262 26 l-213 4 0 -482z"/>
</g>
</svg>
